<?xml version="1.0" encoding="UTF-8"?>
<svg xmlns="http://www.w3.org/2000/svg" xmlns:xlink="http://www.w3.org/1999/xlink" width="256px" height="256px" viewBox="0 0 256 256" version="1.1">
<g id="surface1">
<path style=" stroke:none;fill-rule:nonzero;fill:rgb(2.352941%,54.509807%,93.725491%);fill-opacity:1;" d="M 95.113281 0.0117188 C 78.726562 0.0117188 65.441406 13.914062 65.441406 31.0625 L 65.441406 167.683594 C 65.441406 184.832031 78.726562 198.730469 95.113281 198.730469 L 224.332031 198.730469 C 240.722656 198.738281 254.011719 184.835938 254.011719 167.683594 L 254.011719 31.050781 C 254.011719 13.902344 240.730469 0 224.339844 0 L 95.125 0 Z M 221.082031 145.226562 C 221.082031 155.132812 213.40625 163.167969 203.9375 163.167969 L 115.527344 163.167969 C 106.054688 163.171875 98.375 155.140625 98.375 145.226562 L 98.375 53.507812 C 98.375 43.609375 106.050781 35.574219 115.519531 35.574219 L 203.925781 35.574219 C 213.394531 35.574219 221.070312 43.609375 221.070312 53.507812 L 221.070312 145.226562 Z M 221.082031 145.226562 "/>
<path style=" stroke:none;fill-rule:nonzero;fill:rgb(100%,54.509807%,0.784314%);fill-opacity:1;" d="M 161.535156 57.96875 L 31.660156 57.96875 C 15.269531 57.96875 1.988281 71.867188 1.988281 89.019531 L 1.988281 224.949219 C 1.988281 242.097656 15.269531 256 31.660156 256 L 161.554688 256 C 177.941406 256 191.226562 242.097656 191.226562 224.949219 L 191.226562 89.019531 C 191.226562 71.871094 177.941406 57.96875 161.554688 57.96875 Z M 157.949219 202.832031 C 157.949219 212.742188 150.273438 220.785156 140.804688 220.785156 L 52.398438 220.785156 C 42.925781 220.785156 35.246094 212.746094 35.253906 202.832031 L 35.253906 111.125 C 35.253906 101.214844 42.929688 93.183594 52.398438 93.183594 L 140.804688 93.183594 C 150.273438 93.183594 157.949219 101.203125 157.949219 111.113281 Z M 157.949219 202.832031 "/>
<path style=" stroke:none;fill-rule:nonzero;fill:rgb(2.352941%,54.509807%,93.725491%);fill-opacity:1;" d="M 156.472656 163.167969 L 192.046875 163.167969 L 192.046875 198.722656 L 156.460938 198.722656 Z M 156.472656 163.167969 "/>
<path style=" stroke:none;fill-rule:nonzero;fill:rgb(1.960784%,49.411765%,68.627453%);fill-opacity:1;" d="M 98.375 93.183594 L 65.441406 113.074219 L 65.441406 93.183594 Z M 98.375 93.183594 "/>
<path style=" stroke:none;fill-rule:nonzero;fill:rgb(84.313726%,49.019608%,2.352941%);fill-opacity:1;" d="M 157.949219 198.722656 L 191.214844 217.542969 L 191.214844 198.722656 Z M 157.949219 198.722656 "/>
</g>
</svg>
